<?xml version="1.0" standalone="no"?>
<!DOCTYPE svg PUBLIC "-//W3C//DTD SVG 20010904//EN"
 "http://www.w3.org/TR/2001/REC-SVG-20010904/DTD/svg10.dtd">
<svg version="1.0" xmlns="http://www.w3.org/2000/svg"
 width="512.000000pt" height="512.000000pt" viewBox="0 0 512.000000 512.000000"
 preserveAspectRatio="xMidYMid meet">
<metadata>
Created by potrace 1.14, written by Peter Selinger 2001-2017
</metadata>
<g transform="translate(0.000000,512.000000) scale(0.100000,-0.100000)"
fill="#000000" stroke="none">
<path d="M2265 5104 c-381 -65 -697 -305 -953 -722 -61 -101 -166 -304 -189
-367 -6 -16 -29 -77 -51 -135 -22 -58 -42 -119 -45 -137 -8 -49 12 -108 46
-141 70 -67 413 -228 634 -297 7 -3 -16 -49 -60 -119 l-72 -116 -80 -1 c-83
-2 -91 -2 -165 -13 -51 -8 -226 -54 -249 -66 -9 -4 -52 -25 -96 -45 -318 -146
-579 -454 -679 -798 -24 -83 -28 -100 -44 -223 -15 -108 -5 -269 23 -404 92
-434 419 -798 843 -940 93 -31 106 -34 224 -54 99 -17 308 -13 419 8 194 36
418 139 562 259 26 22 49 38 51 36 2 -2 22 -43 44 -91 171 -368 503 -627 915
-714 115 -25 371 -24 486 0 498 106 870 460 996 945 9 35 18 78 20 95 3 17 7
42 10 56 10 45 7 273 -5 345 -25 157 -69 288 -137 415 -172 319 -475 557 -816
641 l-49 12 7 56 c10 97 15 135 19 161 23 148 64 330 102 461 33 114 104 322
123 364 6 11 29 65 52 120 46 111 159 341 208 423 17 29 31 55 31 58 0 18 209
335 309 469 89 119 92 138 43 238 -64 129 -180 225 -282 232 -47 3 -241 -34
-395 -75 -119 -32 -293 -91 -439 -149 l-130 -52 -135 62 c-212 96 -418 160
-661 204 -73 13 -355 12 -435 -1z m1669 -676 c-4 -7 -19 -31 -32 -52 -205
-330 -375 -780 -471 -1251 -26 -128 -59 -333 -66 -410 -3 -33 -8 -69 -10 -80
-2 -11 -4 -33 -4 -50 -2 -42 -11 -52 -51 -59 -140 -22 -363 -130 -514 -248
l-49 -39 -44 92 c-111 234 -295 437 -511 562 -35 20 -67 37 -73 37 -5 0 -9 4
-9 8 0 8 127 198 151 225 5 7 15 20 23 31 9 14 28 19 76 22 34 2 78 6 96 9 19
3 50 8 70 11 56 9 186 50 247 78 307 140 578 435 780 848 l72 147 60 27 c105
46 119 52 180 78 69 28 89 32 79 14z"/>
</g>
</svg>
